<svg width="40" height="40" viewBox="0 0 40 40" fill="none" xmlns="http://www.w3.org/2000/svg">
<path d="M7.98122 27.9812C10.9233 32.3005 14.9296 34.4601 20 34.4601C25.0704 34.4601 29.0767 32.3005 32.0188 27.9812C31.9562 26.2285 30.5477 24.7574 27.7934 23.5681C25.0391 22.3787 22.4413 21.784 20 21.784C17.5587 21.784 14.9609 22.3787 12.2066 23.5681C9.45227 24.6948 8.04382 26.1659 7.98122 27.9812ZM24.2254 7.79343C23.036 6.60407 21.6275 6.00939 20 6.00939C18.3725 6.00939 16.964 6.60407 15.7746 7.79343C14.5853 8.98279 13.9906 10.3912 13.9906 12.0188C13.9906 13.6463 14.5853 15.0548 15.7746 16.2441C16.964 17.4335 18.3725 18.0282 20 18.0282C21.6275 18.0282 23.036 17.4335 24.2254 16.2441C25.4147 15.0548 26.0094 13.6463 26.0094 12.0188C26.0094 10.3912 25.4147 8.98279 24.2254 7.79343ZM5.8216 5.91549C9.76526 1.97183 14.4914 0 20 0C25.5086 0 30.2034 1.97183 34.0845 5.91549C38.0282 9.79656 40 14.4914 40 20C40 25.5086 38.0282 30.2347 34.0845 34.1784C30.2034 38.0595 25.5086 40 20 40C14.4914 40 9.76526 38.0595 5.8216 34.1784C1.94053 30.2347 0 25.5086 0 20C0 14.4914 1.94053 9.79656 5.8216 5.91549Z" fill="#888"/>
</svg>
